<?xml version="1.0" encoding="UTF-8" standalone="no"?>
<svg
   width="97.537476"
   height="97.537476"
   viewBox="0 0 97.537476 97.537476"
   fill="none"
   version="1.1"
   id="svg28"
   sodipodi:docname="favicon.svg"
   inkscape:version="1.2.2 (732a01da63, 2022-12-09)"
   xmlns:inkscape="http://www.inkscape.org/namespaces/inkscape"
   xmlns:sodipodi="http://sodipodi.sourceforge.net/DTD/sodipodi-0.dtd"
   xmlns="http://www.w3.org/2000/svg"
   xmlns:svg="http://www.w3.org/2000/svg">
  <sodipodi:namedview
     id="namedview30"
     pagecolor="#505050"
     bordercolor="#eeeeee"
     borderopacity="1"
     inkscape:showpageshadow="0"
     inkscape:pageopacity="0"
     inkscape:pagecheckerboard="0"
     inkscape:deskcolor="#505050"
     showgrid="false"
     inkscape:zoom="10.31234"
     inkscape:cx="52.364449"
     inkscape:cy="51.782622"
     inkscape:window-width="2560"
     inkscape:window-height="1377"
     inkscape:window-x="-8"
     inkscape:window-y="-8"
     inkscape:window-maximized="1"
     inkscape:current-layer="svg28" />
  <g
     id="g3962"
     style="stroke-width:3.5;stroke-dasharray:none"
     transform="translate(1.4561329,1.4561329)">
    <circle
       style="fill:#6364ff;stroke:#609ee3;stroke-width:3.5;stroke-dasharray:none;stroke-opacity:1;fill-opacity:1"
       id="path245"
       cy="47.085793"
       cx="47.473682"
       r="29.386713" />
    <circle
       style="fill:none;stroke:#609ee3;stroke-width:3.5;stroke-dasharray:none;stroke-opacity:1"
       id="path1707"
       cx="88.454002"
       cy="47.312599"
       r="5.8773422" />
    <circle
       style="fill:none;stroke:#609ee3;stroke-width:3.5;stroke-dasharray:none;stroke-opacity:1"
       id="path1707-6"
       cx="47.312603"
       cy="6.1712093"
       r="5.8773422" />
    <circle
       style="fill:none;stroke:#609ee3;stroke-width:3.5;stroke-dasharray:none;stroke-opacity:1"
       id="path1707-6-4"
       cx="76.416199"
       cy="18.23348"
       r="5.8773422" />
    <circle
       style="fill:none;stroke:#609ee3;stroke-width:3.5;stroke-dasharray:none;stroke-opacity:1"
       id="path1707-6-4-4"
       cx="76.416199"
       cy="76.766373"
       r="5.8773422" />
    <circle
       style="fill:none;stroke:#609ee3;stroke-width:3.5;stroke-dasharray:none;stroke-opacity:1"
       id="path1707-6-4-4-4"
       cx="18.950827"
       cy="77.115685"
       r="5.8773422" />
    <circle
       style="fill:none;stroke:#609ee3;stroke-width:3.5;stroke-dasharray:none;stroke-opacity:1"
       id="path1707-6-4-4-4-5"
       cx="18.448652"
       cy="18.23348"
       r="5.8773422" />
    <circle
       style="fill:none;stroke:#609ee3;stroke-width:3.5;stroke-dasharray:none;stroke-opacity:1"
       id="path1707-6-1"
       cx="47.312603"
       cy="88.454002"
       r="5.8773422" />
    <circle
       style="fill:none;stroke:#609ee3;stroke-width:3.5;stroke-dasharray:none;stroke-opacity:1"
       id="path1707-4"
       cx="6.1712093"
       cy="47.312599"
       r="5.8773422" />
    <path
       style="fill:none;stroke:#609ee3;stroke-width:3.5;stroke-dasharray:none;stroke-opacity:1"
       d="m 7.6861175,54.75767 c 0.046354,6.702808 2.5665205,12.655531 6.3602005,16.368544 l 5.140533,-12.909999 z"
       id="path2027"
       sodipodi:nodetypes="cccc" />
    <path
       style="fill:none;stroke:#609ee3;stroke-width:3.5;stroke-dasharray:none;stroke-opacity:1"
       d="m 24.564489,81.980469 c 5.396252,4.094966 10.718337,5.782808 16.350212,6.240927 L 37.630216,75.938337 Z"
       id="path2029"
       sodipodi:nodetypes="cccc" />
    <path
       style="fill:none;stroke:#609ee3;stroke-width:3.5;stroke-dasharray:none;stroke-opacity:1"
       d="m 54.311346,87.869213 c 6.554137,-2.251811 10.410922,-3.903954 15.423456,-7.697368 L 58.76316,75.184598 Z"
       id="path2031"
       sodipodi:nodetypes="cccc" />
    <path
       style="fill:none;stroke:#609ee3;stroke-width:3.5;stroke-dasharray:none;stroke-opacity:1"
       d="m 80.720817,70.45279 c 3.38192,-4.634539 5.829938,-10.308687 7.439323,-16.96898 l -12.25145,4.143404 z"
       id="path2033"
       sodipodi:nodetypes="cccc" />
    <path
       style="fill:none;stroke:#609ee3;stroke-width:3.5;stroke-dasharray:none;stroke-opacity:1"
       d="M 88.531966,40.149078 C 86.855129,33.31732 84.98435,28.208498 80.883233,23.518582 L 75.65241,35.614009 Z"
       id="path2035"
       sodipodi:nodetypes="cccc" />
    <path
       style="fill:none;stroke:#609ee3;stroke-width:3.5;stroke-dasharray:none;stroke-opacity:1"
       d="M 6.3972599,39.932526 C 6.9338734,32.92207 9.5215823,27.470503 13.11231,22.03559 l 6.299912,12.642926 z"
       id="path2037"
       sodipodi:nodetypes="cccc" />
    <path
       style="fill:none;stroke:#609ee3;stroke-width:3.5;stroke-dasharray:none;stroke-opacity:1"
       d="M 23.336504,12.753809 C 27.086992,9.3295886 34.115717,6.6962424 40.365229,6.8799857 L 36.90591,18.619096 Z"
       id="path2039"
       sodipodi:nodetypes="cccc" />
    <path
       style="fill:none;stroke:#609ee3;stroke-width:3.5;stroke-dasharray:none;stroke-opacity:1"
       d="m 54.10879,6.1257911 c 4.349975,-0.022155 10.460154,1.6336458 17.637144,7.2655209 l -12.910883,5.133907 z"
       id="path2041"
       sodipodi:nodetypes="cccc" />
  </g>
  <path
     d="m 85.755053,32.762959 c -1.142,-8.48815 -8.5399,-15.17745 -17.3097,-16.47366 -1.4796,-0.219025 -7.0855,-1.01614 -20.0714,-1.01614 h -0.097 c -12.9895,0 -15.7762,0.797115 -17.2558,1.01614 -8.5256,1.2603 -16.31141,7.27098 -18.200403,15.85966 -0.908583,4.2298 -1.005546,8.9191 -0.836758,13.2207 0.240613,6.1686 0.287299,12.3265 0.847531,18.47 0.3873,4.0809 1.06295,8.1292 2.02186,12.114701 1.79562,7.3608 9.06427,13.4864 16.18567,15.9854 7.6245,2.6062 15.8241,3.0389 23.6806,1.2496 0.8643,-0.2011 1.7178,-0.4345 2.5606,-0.7002 1.9105,-0.6068 4.1478,-1.2855 5.7926,-2.4775 0.0226,-0.0168 0.0411,-0.0384 0.0541,-0.0632 0.0131,-0.0249 0.0204,-0.0524 0.0213,-0.0805 v -5.9532 c -4e-4,-0.0262 -0.0066,-0.052 -0.0183,-0.0755 -0.0117,-0.0235 -0.0284,-0.0441 -0.0491,-0.0603 -0.0207,-0.0162 -0.0447,-0.0275 -0.0703,-0.0332 -0.0256,-0.006 -0.0522,-0.006 -0.0777,3e-4 -5.0336,1.2021 -10.1917,1.8048 -15.3669,1.7953 -8.9063,0 -11.3016,-4.2262 -11.9876,-5.9856 -0.5513,-1.5206 -0.9014,-3.1067 -1.0414,-4.718001 -0.0015,-0.0271 0.0035,-0.0541 0.0145,-0.0789 0.0109,-0.0248 0.0276,-0.0466 0.0486,-0.0637 0.021,-0.0172 0.0457,-0.0291 0.0722,-0.0349 0.0265,-0.0058 0.0539,-0.0053 0.0802,0.0015 4.9497,1.194001 10.0237,1.796701 15.1155,1.795301 1.2246,0 2.4456,0 3.6702,-0.0323 5.1211,-0.1436 10.5187,-0.4057 15.5572,-1.3895 0.1257,-0.0252 0.2514,-0.0467 0.3591,-0.079 7.9474,-1.526101 15.5106,-6.315901 16.2791,-18.445001 0.0287,-0.4775 0.1006,-5.0017 0.1006,-5.4972 0.004,-1.684 0.5422,-11.946 -0.0791,-18.2511 z"
     fill="url(#paint0_linear_549_34)"
     id="path17"
     style="fill:url(#paint0_linear_549_34);stroke:none;opacity:0" />
  <path
     d="m 73.164153,42.299459 v 21.0877 h -8.3568 v -20.4665 c 0,-4.3087 -1.7956,-6.5062 -5.4479,-6.5062 -4.015,0 -6.026,2.5996 -6.026,7.7342 v 11.2027 h -8.3066 v -11.2027 c 0,-5.1346 -2.0146,-7.7342 -6.0296,-7.7342 -3.6308,0 -5.4444,2.1975 -5.4444,6.5062 v 20.4665 h -8.3532 v -21.0877 c 0,-4.3087 1.1001,-7.7317 3.3004,-10.2691 2.2696,-2.5314 5.2468,-3.8312 8.9421,-3.8312 4.2772,0 7.5093,1.6445 9.6641,4.9299 l 2.0793,3.4901 2.0829,-3.4901 c 2.1547,-3.2854 5.3868,-4.9299 9.6568,-4.9299 3.6918,0 6.6689,1.2998 8.9458,3.8312 2.1978,2.535 3.2955,5.958 3.2931,10.2691 z"
     fill="#ffffff"
     id="path19" />
  <defs
     id="defs26">
    <linearGradient
       id="paint0_linear_549_34"
       x1="37.069199"
       y1="0"
       x2="37.069199"
       y2="79"
       gradientUnits="userSpaceOnUse"
       gradientTransform="translate(11.915753,15.273159)">
      <stop
         stop-color="#6364FF"
         id="stop21" />
      <stop
         offset="1"
         stop-color="#563ACC"
         id="stop23" />
    </linearGradient>
  </defs>
</svg>
